# xmcd
#
# Track frame offsets:
#	150
#	10083
#	22708
#	35543
#	46236
#	57284
#	67289
#	79567
#	91739
#	101525
#	112775
#	123326
#	134293
#	145773
#	157063
#	169588
#	181841
#
# Disc length: 2570 seconds
#
# Revision: 0
# Processed by: cddbd v1.5.1PL0 Copyright (c) Steve Scherf et al.
# Submitted via: dBpowerAMP V4.0
#
DISCID=cd0a0811
DTITLE=George Jones and Gene Pitney - The Complete '60s Duets
DYEAR=2005
DGENRE=Country
TTITLE0=I've Got Five Dollars And It's Saturday Night
TTITLE1=Wreck On The Highway
TTITLE2=Sweeter Than The Flowers
TTITLE3=One Has My Name
TTITLE4=I'm A Fool To Care
TTITLE5=Don't Rob Another Man's Castle
TTITLE6=My Shoes Keep Walking Back To You
TTITLE7=I've Got A New Heartache
TTITLE8=Big Job
TTITLE9=That's All It Took
TTITLE10=Mockin' Bird Hill
TTITLE11=As Long As I Live
TTITLE12=Y'All Come
TTITLE13=Someday You'll Want Me To Want You
TTITLE14=Louisiana Man
TTITLE15=Your Old Standby
TTITLE16=Why Baby Why
EXTD=
EXTT0=
EXTT1=
EXTT2=
EXTT3=
EXTT4=
EXTT5=
EXTT6=
EXTT7=
EXTT8=
EXTT9=
EXTT10=
EXTT11=
EXTT12=
EXTT13=
EXTT14=
EXTT15=
EXTT16=
PLAYORDER=
